<svg width="458" height="343" viewBox="0 0 458 343" fill="none" xmlns="http://www.w3.org/2000/svg">
<g filter="url(#filter0_d_190_60)">
<path d="M38.4822 273.667C35.6662 273.667 32.6902 273.219 29.5542 272.323C26.4182 271.427 23.3462 270.083 20.3382 268.291C17.3302 266.499 14.5782 264.227 12.0822 261.475C9.65017 258.659 7.69817 255.395 6.22617 251.683C4.81817 247.907 4.11417 243.619 4.11417 238.819C4.11417 234.211 4.81817 230.115 6.22617 226.531C7.69817 222.883 9.65017 219.715 12.0822 217.027C14.5142 214.339 17.2342 212.131 20.2422 210.403C23.2502 208.611 26.3542 207.299 29.5542 206.467C32.7542 205.571 35.7942 205.123 38.6742 205.123C41.9382 205.123 44.7862 205.507 47.2182 206.275C49.6502 207.043 51.6342 207.843 53.1702 208.675C54.7062 209.443 55.6662 209.987 56.0502 210.307C57.2022 211.011 58.2902 211.811 59.3142 212.707C60.3382 213.603 60.8822 214.787 60.9462 216.259C60.9462 217.027 60.7862 217.795 60.4662 218.563C60.2102 219.267 59.7942 220.035 59.2182 220.867C58.1942 222.339 57.2022 223.427 56.2422 224.131C55.3462 224.771 54.4182 225.091 53.4582 225.091C52.6902 225.091 51.9542 224.899 51.2502 224.515C50.6102 224.131 49.7782 223.619 48.7542 222.979C48.3062 222.659 47.6662 222.275 46.8342 221.827C46.0022 221.315 44.8822 220.867 43.4742 220.483C42.0662 220.035 40.2742 219.811 38.0982 219.811C35.8582 219.811 33.5862 220.227 31.2822 221.059C29.0422 221.827 26.9622 223.011 25.0422 224.611C23.1222 226.211 21.5862 228.259 20.4342 230.755C19.2822 233.187 18.7062 236.035 18.7062 239.299C18.7062 242.691 19.2822 245.603 20.4342 248.035C21.6502 250.467 23.2182 252.483 25.1382 254.083C27.0582 255.683 29.1382 256.899 31.3782 257.731C33.6822 258.499 35.9222 258.883 38.0982 258.883C40.0182 258.883 41.6502 258.691 42.9942 258.307C44.4022 257.923 45.5862 257.475 46.5462 256.963C47.5702 256.387 48.4342 255.875 49.1382 255.427C49.8422 254.979 50.5462 254.563 51.2502 254.179C52.0182 253.795 52.7862 253.603 53.5542 253.603C54.4502 253.603 55.3462 253.955 56.2422 254.659C57.2022 255.363 58.1622 256.483 59.1222 258.019C59.6982 258.851 60.1462 259.683 60.4662 260.515C60.7862 261.283 60.9142 262.051 60.8502 262.819C60.8502 264.163 60.3382 265.283 59.3142 266.179C58.2902 267.011 57.2022 267.779 56.0502 268.483C55.5382 268.739 54.5462 269.315 53.0742 270.211C51.6022 271.043 49.6502 271.811 47.2182 272.515C44.7862 273.283 41.8742 273.667 38.4822 273.667ZM74.0577 272.899C71.7537 272.899 70.0897 272.579 69.0657 271.939C68.0417 271.235 67.4017 270.339 67.1457 269.251C66.9537 268.099 66.8577 266.883 66.8577 265.603V210.307C66.8577 209.027 66.9857 207.843 67.2417 206.755C67.4977 205.667 68.1377 204.803 69.1617 204.163C70.1857 203.459 71.8497 203.107 74.1537 203.107C76.5217 203.107 78.1857 203.459 79.1457 204.163C80.1697 204.867 80.7777 205.763 80.9697 206.851C81.2257 207.939 81.3537 209.123 81.3537 210.403V229.987C82.5057 228.771 83.9777 227.619 85.7697 226.531C87.6257 225.443 89.8017 224.899 92.2977 224.899C96.2657 224.899 99.8177 225.923 102.954 227.971C106.154 229.955 108.682 232.707 110.538 236.227C112.458 239.747 113.418 243.779 113.418 248.323V265.699C113.418 266.979 113.29 268.163 113.034 269.251C112.778 270.339 112.17 271.235 111.21 271.939C110.25 272.579 108.554 272.899 106.122 272.899C103.882 272.899 102.218 272.579 101.13 271.939C100.106 271.235 99.4657 270.339 99.2097 269.251C99.0177 268.099 98.9217 266.883 98.9217 265.603V248.227C98.9217 246.371 98.6017 244.803 97.9617 243.523C97.3217 242.179 96.3617 241.123 95.0817 240.355C93.8657 239.587 92.3617 239.203 90.5697 239.203C88.2017 239.203 86.1217 239.939 84.3297 241.411C82.6017 242.819 81.6097 244.547 81.3537 246.595V265.699C81.3537 266.979 81.2257 268.163 80.9697 269.251C80.7137 270.339 80.0737 271.235 79.0497 271.939C78.0897 272.579 76.4257 272.899 74.0577 272.899ZM144.206 273.763C139.726 273.763 135.854 273.027 132.59 271.555C129.39 270.083 126.766 268.163 124.718 265.795C122.67 263.363 121.134 260.675 120.11 257.731C119.15 254.787 118.67 251.843 118.67 248.899C118.67 244.099 119.758 239.843 121.934 236.131C124.11 232.419 127.118 229.507 130.958 227.395C134.798 225.219 139.214 224.131 144.206 224.131C147.918 224.131 151.118 224.739 153.806 225.955C156.558 227.107 158.798 228.643 160.526 230.563C162.318 232.419 163.63 234.435 164.462 236.611C165.358 238.787 165.806 240.867 165.806 242.851C165.806 246.371 164.942 248.995 163.214 250.723C161.55 252.387 159.406 253.219 156.782 253.219H133.934C134.062 254.883 134.638 256.291 135.662 257.443C136.75 258.595 138.094 259.491 139.694 260.131C141.294 260.771 142.99 261.091 144.782 261.091C146.318 261.091 147.662 261.027 148.814 260.899C149.966 260.707 150.958 260.483 151.79 260.227C152.622 259.907 153.39 259.619 154.094 259.363C154.798 259.043 155.406 258.787 155.918 258.595C156.494 258.403 157.038 258.275 157.55 258.211C158.51 258.147 159.374 258.435 160.142 259.075C160.974 259.651 161.71 260.547 162.35 261.763C162.798 262.467 163.086 263.139 163.214 263.779C163.406 264.419 163.502 265.059 163.502 265.699C163.502 267.235 162.702 268.611 161.102 269.827C159.566 271.043 157.358 272.003 154.478 272.707C151.662 273.411 148.238 273.763 144.206 273.763ZM133.934 245.347H149.102C150.126 245.347 150.862 245.187 151.31 244.867C151.822 244.483 152.078 243.779 152.078 242.755C152.078 241.603 151.726 240.611 151.022 239.779C150.318 238.883 149.358 238.211 148.142 237.763C146.99 237.251 145.646 236.995 144.11 236.995C142.126 236.995 140.366 237.379 138.83 238.147C137.294 238.915 136.078 239.939 135.182 241.219C134.35 242.499 133.934 243.875 133.934 245.347ZM178.968 272.899C176.664 272.899 175 272.547 173.976 271.843C172.952 271.139 172.344 270.243 172.152 269.155C171.96 268.067 171.864 266.883 171.864 265.603V232.003C171.864 230.723 171.96 229.571 172.152 228.547C172.408 227.459 173.048 226.595 174.072 225.955C175.096 225.251 176.792 224.899 179.16 224.899C181.528 224.899 183.256 225.379 184.344 226.339C185.432 227.235 185.976 228.739 185.976 230.851L184.728 231.907C184.856 231.587 185.24 231.043 185.88 230.275C186.52 229.507 187.352 228.707 188.376 227.875C189.4 227.043 190.584 226.339 191.928 225.763C193.336 225.123 194.84 224.803 196.44 224.803C198.552 224.803 200.44 225.123 202.104 225.763C203.832 226.339 205.368 227.235 206.712 228.451C208.12 229.603 209.336 231.075 210.36 232.867C211.256 231.587 212.344 230.339 213.624 229.123C214.904 227.907 216.408 226.883 218.136 226.051C219.928 225.219 221.912 224.803 224.088 224.803C227.8 224.803 230.936 225.763 233.496 227.683C236.12 229.539 238.104 232.227 239.448 235.747C240.792 239.267 241.464 243.523 241.464 248.515V265.699C241.464 266.915 241.336 268.099 241.08 269.251C240.888 270.339 240.28 271.235 239.256 271.939C238.232 272.579 236.536 272.899 234.168 272.899C231.8 272.899 230.104 272.547 229.08 271.843C228.12 271.139 227.512 270.243 227.256 269.155C227.064 268.003 226.968 266.819 226.968 265.603V248.419C226.968 246.435 226.744 244.771 226.296 243.427C225.848 242.083 225.144 241.059 224.184 240.355C223.288 239.587 222.136 239.203 220.728 239.203C219.256 239.203 218.008 239.555 216.984 240.259C215.96 240.899 215.192 241.923 214.68 243.331C214.168 244.675 213.912 246.403 213.912 248.515V265.699C213.912 266.979 213.752 268.195 213.432 269.347C213.112 270.435 212.408 271.331 211.32 272.035C210.296 272.675 208.632 272.963 206.328 272.899C204.024 272.835 202.392 272.451 201.432 271.747C200.472 271.043 199.896 270.147 199.704 269.059C199.512 267.907 199.416 266.755 199.416 265.603V248.419C199.416 246.435 199.192 244.771 198.744 243.427C198.296 242.019 197.624 240.963 196.728 240.259C195.832 239.555 194.648 239.203 193.176 239.203C191.576 239.203 190.264 239.619 189.24 240.451C188.216 241.283 187.448 242.403 186.936 243.811C186.488 245.155 186.264 246.691 186.264 248.419V265.699C186.264 266.979 186.136 268.163 185.88 269.251C185.688 270.339 185.08 271.235 184.056 271.939C183.032 272.579 181.336 272.899 178.968 272.899Z" fill="#53CBF6"/>
</g>
<g filter="url(#filter1_d_190_60)">
<path d="M432.948 321.52C431.201 321.52 429.292 321.334 427.221 320.96C425.215 320.587 423.241 320.059 421.3 319.375C419.359 318.628 417.741 317.789 416.447 316.856C415.153 315.861 414.408 314.741 414.214 313.498C414.085 312.876 414.085 312.223 414.214 311.539C414.408 310.792 414.732 310.046 415.185 309.3C415.638 308.491 416.188 307.652 416.835 306.781C417.353 306.097 417.935 305.662 418.582 305.475C419.229 305.288 419.973 305.32 420.815 305.568C421.85 305.755 422.885 306.097 423.921 306.594C425.021 307.03 426.088 307.527 427.124 308.087C428.224 308.585 429.356 309.051 430.521 309.486C431.686 309.859 432.883 310.046 434.112 310.046C435.924 310.046 437.316 309.797 438.286 309.3C439.322 308.74 439.839 307.994 439.839 307.061C439.839 306.377 439.613 305.817 439.16 305.382C438.772 304.946 438.189 304.573 437.413 304.262C436.701 303.889 435.86 303.578 434.889 303.329C433.918 303.081 432.851 302.832 431.686 302.583C430.586 302.272 429.453 301.961 428.289 301.65C426.671 301.215 425.118 300.655 423.629 299.971C422.141 299.287 420.782 298.416 419.553 297.359C418.323 296.24 417.353 294.903 416.641 293.348C415.929 291.731 415.573 289.772 415.573 287.471C415.573 284.424 416.317 281.874 417.806 279.822C419.294 277.769 421.462 276.215 424.309 275.157C427.156 274.038 430.618 273.478 434.695 273.478C435.86 273.478 437.024 273.54 438.189 273.665C439.354 273.789 440.486 274.007 441.586 274.318C442.751 274.629 443.884 275.002 444.984 275.437C446.084 275.872 447.184 276.401 448.284 277.023C450.225 277.894 451.228 279.075 451.293 280.568C451.358 282.06 450.807 283.584 449.643 285.139C448.931 286.196 448.187 286.973 447.41 287.471C446.634 287.906 445.825 288.031 444.984 287.844C443.948 287.595 442.816 287.191 441.586 286.631C440.422 286.072 439.16 285.543 437.801 285.046C436.507 284.548 435.212 284.299 433.918 284.299C432.818 284.299 431.88 284.455 431.103 284.766C430.327 285.014 429.745 285.388 429.356 285.885C428.968 286.32 428.774 286.849 428.774 287.471C428.774 288.279 429 288.932 429.453 289.43C429.971 289.865 430.65 290.238 431.492 290.549C432.333 290.86 433.304 291.14 434.404 291.389C435.504 291.638 436.701 291.886 437.995 292.135C439.742 292.446 441.522 292.882 443.334 293.441C445.21 293.939 446.893 294.685 448.381 295.68C449.934 296.675 451.163 298.012 452.069 299.691C453.04 301.37 453.525 303.578 453.525 306.315C453.525 311.228 451.746 314.99 448.187 317.602C444.628 320.214 439.548 321.52 432.948 321.52Z" fill="url(#paint0_linear_190_60)"/>
</g>
<g filter="url(#filter2_d_190_60)">
<path d="M368.062 320.68C365.668 320.68 363.953 320.37 362.918 319.748C361.947 319.064 361.333 318.193 361.074 317.136C360.88 316.016 360.782 314.866 360.782 313.684V280.848C360.782 279.666 360.912 278.578 361.171 277.583C361.43 276.525 362.044 275.686 363.015 275.064C364.05 274.442 365.765 274.131 368.159 274.131C370.23 274.131 371.751 274.411 372.721 274.971C373.692 275.468 374.307 276.09 374.566 276.836C374.889 277.583 375.051 278.298 375.051 278.982C375.051 279.604 375.116 280.039 375.245 280.288L374.663 282.06C374.792 281.128 375.277 280.195 376.119 279.262C377.025 278.267 378.125 277.396 379.419 276.65C380.778 275.841 382.201 275.219 383.69 274.784C385.243 274.349 386.763 274.131 388.252 274.131C391.358 274.131 394.108 274.691 396.502 275.81C398.961 276.867 401.032 278.422 402.714 280.475C404.397 282.527 405.659 284.952 406.5 287.751C407.406 290.487 407.859 293.503 407.859 296.799V313.777C407.859 314.959 407.729 316.11 407.47 317.229C407.276 318.286 406.662 319.126 405.626 319.748C404.656 320.37 402.973 320.68 400.579 320.68C398.12 320.68 396.373 320.37 395.337 319.748C394.367 319.064 393.752 318.193 393.493 317.136C393.234 316.016 393.105 314.866 393.105 313.684V296.799C393.105 294.934 392.781 293.348 392.134 292.042C391.487 290.736 390.516 289.741 389.222 289.057C387.928 288.31 386.343 287.937 384.466 287.937C382.59 287.937 380.972 288.31 379.613 289.057C378.254 289.803 377.186 290.829 376.41 292.135C375.698 293.441 375.342 294.996 375.342 296.799V313.777C375.342 314.959 375.213 316.11 374.954 317.229C374.76 318.286 374.145 319.126 373.11 319.748C372.139 320.37 370.457 320.68 368.062 320.68Z" fill="url(#paint1_linear_190_60)"/>
</g>
<g filter="url(#filter3_d_190_60)">
<path d="M332.72 321.613C328.191 321.613 324.276 320.898 320.975 319.468C317.74 318.037 315.087 316.172 313.016 313.871C310.945 311.508 309.392 308.896 308.357 306.035C307.386 303.174 306.901 300.313 306.901 297.453C306.901 292.788 308.001 288.653 310.201 285.046C312.401 281.439 315.443 278.609 319.325 276.557C323.208 274.442 327.673 273.385 332.72 273.385C336.473 273.385 339.709 273.976 342.427 275.157C345.209 276.277 347.474 277.769 349.221 279.635C351.033 281.439 352.36 283.398 353.201 285.512C354.107 287.626 354.56 289.648 354.56 291.576C354.56 294.996 353.686 297.546 351.939 299.225C350.257 300.842 348.089 301.65 345.436 301.65H322.334C322.464 303.267 323.046 304.635 324.082 305.755C325.182 306.874 326.54 307.745 328.158 308.367C329.776 308.989 331.491 309.3 333.303 309.3C334.856 309.3 336.215 309.238 337.379 309.113C338.544 308.927 339.547 308.709 340.388 308.46C341.23 308.149 342.006 307.869 342.718 307.621C343.43 307.31 344.044 307.061 344.562 306.874C345.144 306.688 345.694 306.563 346.212 306.501C347.183 306.439 348.056 306.719 348.833 307.341C349.674 307.9 350.418 308.771 351.065 309.953C351.518 310.637 351.81 311.29 351.939 311.912C352.133 312.534 352.23 313.156 352.23 313.777C352.23 315.27 351.421 316.607 349.804 317.789C348.251 318.97 346.018 319.903 343.106 320.587C340.259 321.271 336.797 321.613 332.72 321.613ZM322.334 294.001H337.671C338.706 294.001 339.45 293.845 339.903 293.535C340.421 293.161 340.68 292.477 340.68 291.482C340.68 290.363 340.324 289.399 339.612 288.59C338.9 287.72 337.929 287.067 336.7 286.631C335.535 286.134 334.176 285.885 332.623 285.885C330.617 285.885 328.838 286.258 327.285 287.005C325.732 287.751 324.502 288.746 323.596 289.99C322.755 291.233 322.334 292.571 322.334 294.001Z" fill="url(#paint2_linear_190_60)"/>
</g>
<g filter="url(#filter4_d_190_60)">
<path d="M260.967 321.878C258.698 321.878 257.06 321.414 256.051 320.488C255.043 319.468 254.413 318.124 254.161 316.456C253.909 314.788 253.783 313.073 253.783 311.312V235.271C253.783 233.417 253.877 231.703 254.066 230.127C254.318 228.552 254.949 227.254 255.957 226.235C256.965 225.215 258.635 224.705 260.967 224.705C263.362 224.705 265.032 225.215 265.977 226.235C266.986 227.254 267.584 228.552 267.774 230.127C268.026 231.703 268.152 233.417 268.152 235.271V303.528H294.054C295.125 303.528 296.133 303.667 297.079 303.945C298.024 304.223 298.78 305.01 299.347 306.308C299.978 307.605 300.293 309.737 300.293 312.703C300.293 315.576 299.978 317.707 299.347 319.097C298.717 320.395 297.929 321.183 296.984 321.461C296.102 321.739 295.125 321.878 294.054 321.878H260.967Z" fill="url(#paint3_linear_190_60)"/>
</g>
<g filter="url(#filter5_d_190_60)">
<path d="M296.167 114.06L285.519 132.436H264.226L253.582 114.06L264.226 95.6842H285.519L296.167 114.06Z" stroke="#53CBF6" stroke-width="4" stroke-linejoin="round"/>
<path d="M264.443 132.483L253.799 150.855H232.506L221.858 132.483L232.506 114.107H253.799L264.443 132.483Z" stroke="#53CBF6" stroke-width="4" stroke-linejoin="round"/>
<path d="M296.167 150.904L285.519 169.284H264.226L253.582 150.904L264.226 132.532H285.519L296.167 150.904Z" stroke="#53CBF6" stroke-width="4" stroke-linejoin="round"/>
<path d="M296.058 150.767H311M270.211 158.902H280.513M233.106 134.426L239.208 124.947M266.075 114.722L270.529 122.575M232.075 114.16L221 96.4701M285.333 95.9484L292.373 82.2838M232.253 151.642L222.232 167.057" stroke="#53CBF6" stroke-width="4" stroke-linecap="round" stroke-linejoin="round"/>
</g>
<path fill-rule="evenodd" clip-rule="evenodd" d="M321.841 191.599C306.013 206.019 285.054 214.146 263.27 214.311C241.485 214.477 220.529 206.668 204.704 192.489C188.88 178.309 179.389 158.836 178.18 138.068C176.971 117.3 184.137 96.8137 198.205 80.8172C212.274 64.8206 232.177 54.528 253.827 52.0531C275.477 49.5783 297.23 55.1091 314.619 67.5097C332.008 79.9103 343.713 98.2392 347.329 118.732C350.945 139.225 346.198 160.326 334.063 177.701L404.348 233.938C405.348 234.681 406.178 235.611 406.791 236.671C407.403 237.73 407.785 238.899 407.913 240.106C408.041 241.314 407.913 242.536 407.537 243.699C407.16 244.862 406.543 245.942 405.722 246.876C404.901 247.81 403.892 248.578 402.757 249.133C401.622 249.689 400.383 250.022 399.114 250.111C397.845 250.201 396.572 250.045 395.372 249.654C394.171 249.263 393.067 248.645 392.126 247.835L321.841 191.599ZM220.494 181.562C210.488 173.554 203.217 162.874 199.597 150.87C195.978 138.866 196.174 126.078 200.16 114.122C204.146 102.166 211.744 91.5781 221.993 83.6972C232.241 75.8163 244.681 70.9957 257.74 69.8448C270.799 68.6938 283.891 71.2641 295.361 77.2308C306.831 83.1976 316.164 92.2929 322.182 103.367C328.199 114.442 330.631 126.998 329.168 139.45C327.706 151.902 322.416 163.69 313.967 173.324L313.909 173.39L313.85 173.443C302.492 186.329 286.279 194.421 268.775 195.944C251.271 197.466 233.905 192.293 220.494 181.562Z" fill="#E3579D"/>
<defs>
<filter id="filter0_d_190_60" x="0.114258" y="203.107" width="245.35" height="78.656" filterUnits="userSpaceOnUse" color-interpolation-filters="sRGB">
<feFlood flood-opacity="0" result="BackgroundImageFix"/>
<feColorMatrix in="SourceAlpha" type="matrix" values="0 0 0 0 0 0 0 0 0 0 0 0 0 0 0 0 0 0 127 0" result="hardAlpha"/>
<feOffset dy="4"/>
<feGaussianBlur stdDeviation="2"/>
<feComposite in2="hardAlpha" operator="out"/>
<feColorMatrix type="matrix" values="0 0 0 0 0 0 0 0 0 0 0 0 0 0 0 0 0 0 0.25 0"/>
<feBlend mode="normal" in2="BackgroundImageFix" result="effect1_dropShadow_190_60"/>
<feBlend mode="normal" in="SourceGraphic" in2="effect1_dropShadow_190_60" result="shape"/>
</filter>
<filter id="filter1_d_190_60" x="410.117" y="273.478" width="47.4082" height="56.042" filterUnits="userSpaceOnUse" color-interpolation-filters="sRGB">
<feFlood flood-opacity="0" result="BackgroundImageFix"/>
<feColorMatrix in="SourceAlpha" type="matrix" values="0 0 0 0 0 0 0 0 0 0 0 0 0 0 0 0 0 0 127 0" result="hardAlpha"/>
<feOffset dy="4"/>
<feGaussianBlur stdDeviation="2"/>
<feComposite in2="hardAlpha" operator="out"/>
<feColorMatrix type="matrix" values="0 0 0 0 0 0 0 0 0 0 0 0 0 0 0 0 0 0 0.25 0"/>
<feBlend mode="normal" in2="BackgroundImageFix" result="effect1_dropShadow_190_60"/>
<feBlend mode="normal" in="SourceGraphic" in2="effect1_dropShadow_190_60" result="shape"/>
</filter>
<filter id="filter2_d_190_60" x="356.782" y="274.131" width="55.0762" height="54.5494" filterUnits="userSpaceOnUse" color-interpolation-filters="sRGB">
<feFlood flood-opacity="0" result="BackgroundImageFix"/>
<feColorMatrix in="SourceAlpha" type="matrix" values="0 0 0 0 0 0 0 0 0 0 0 0 0 0 0 0 0 0 127 0" result="hardAlpha"/>
<feOffset dy="4"/>
<feGaussianBlur stdDeviation="2"/>
<feComposite in2="hardAlpha" operator="out"/>
<feColorMatrix type="matrix" values="0 0 0 0 0 0 0 0 0 0 0 0 0 0 0 0 0 0 0.25 0"/>
<feBlend mode="normal" in2="BackgroundImageFix" result="effect1_dropShadow_190_60"/>
<feBlend mode="normal" in="SourceGraphic" in2="effect1_dropShadow_190_60" result="shape"/>
</filter>
<filter id="filter3_d_190_60" x="302.901" y="273.385" width="55.6587" height="56.2285" filterUnits="userSpaceOnUse" color-interpolation-filters="sRGB">
<feFlood flood-opacity="0" result="BackgroundImageFix"/>
<feColorMatrix in="SourceAlpha" type="matrix" values="0 0 0 0 0 0 0 0 0 0 0 0 0 0 0 0 0 0 127 0" result="hardAlpha"/>
<feOffset dy="4"/>
<feGaussianBlur stdDeviation="2"/>
<feComposite in2="hardAlpha" operator="out"/>
<feColorMatrix type="matrix" values="0 0 0 0 0 0 0 0 0 0 0 0 0 0 0 0 0 0 0.25 0"/>
<feBlend mode="normal" in2="BackgroundImageFix" result="effect1_dropShadow_190_60"/>
<feBlend mode="normal" in="SourceGraphic" in2="effect1_dropShadow_190_60" result="shape"/>
</filter>
<filter id="filter4_d_190_60" x="249.783" y="224.705" width="54.51" height="105.172" filterUnits="userSpaceOnUse" color-interpolation-filters="sRGB">
<feFlood flood-opacity="0" result="BackgroundImageFix"/>
<feColorMatrix in="SourceAlpha" type="matrix" values="0 0 0 0 0 0 0 0 0 0 0 0 0 0 0 0 0 0 127 0" result="hardAlpha"/>
<feOffset dy="4"/>
<feGaussianBlur stdDeviation="2"/>
<feComposite in2="hardAlpha" operator="out"/>
<feColorMatrix type="matrix" values="0 0 0 0 0 0 0 0 0 0 0 0 0 0 0 0 0 0 0.25 0"/>
<feBlend mode="normal" in2="BackgroundImageFix" result="effect1_dropShadow_190_60"/>
<feBlend mode="normal" in="SourceGraphic" in2="effect1_dropShadow_190_60" result="shape"/>
</filter>
<filter id="filter5_d_190_60" x="215" y="80.2834" width="102" height="99.0002" filterUnits="userSpaceOnUse" color-interpolation-filters="sRGB">
<feFlood flood-opacity="0" result="BackgroundImageFix"/>
<feColorMatrix in="SourceAlpha" type="matrix" values="0 0 0 0 0 0 0 0 0 0 0 0 0 0 0 0 0 0 127 0" result="hardAlpha"/>
<feOffset dy="4"/>
<feGaussianBlur stdDeviation="2"/>
<feComposite in2="hardAlpha" operator="out"/>
<feColorMatrix type="matrix" values="0 0 0 0 0 0 0 0 0 0 0 0 0 0 0 0 0 0 0.25 0"/>
<feBlend mode="normal" in2="BackgroundImageFix" result="effect1_dropShadow_190_60"/>
<feBlend mode="normal" in="SourceGraphic" in2="effect1_dropShadow_190_60" result="shape"/>
</filter>
<linearGradient id="paint0_linear_190_60" x1="249.738" y1="285.924" x2="456" y2="285.924" gradientUnits="userSpaceOnUse">
<stop offset="0.206731" stop-color="#53CBF6"/>
<stop offset="1" stop-color="#E3579D"/>
</linearGradient>
<linearGradient id="paint1_linear_190_60" x1="249.738" y1="285.924" x2="456" y2="285.924" gradientUnits="userSpaceOnUse">
<stop offset="0.206731" stop-color="#53CBF6"/>
<stop offset="1" stop-color="#E3579D"/>
</linearGradient>
<linearGradient id="paint2_linear_190_60" x1="249.738" y1="285.924" x2="456" y2="285.924" gradientUnits="userSpaceOnUse">
<stop offset="0.206731" stop-color="#53CBF6"/>
<stop offset="1" stop-color="#E3579D"/>
</linearGradient>
<linearGradient id="paint3_linear_190_60" x1="248.537" y1="269.944" x2="449.419" y2="269.944" gradientUnits="userSpaceOnUse">
<stop offset="0.0961538" stop-color="#53CBF6"/>
<stop offset="1" stop-color="#E3579D"/>
</linearGradient>
</defs>
</svg>
